<svg width="85" height="155" viewBox="0 0 85 155" fill="none" xmlns="http://www.w3.org/2000/svg">
<g id="Group 40">
<g id="Vector 84">
<path d="M24.2064 7.65962L29.6374 8.13884C29.6374 11.8128 28.0401 10.8544 27.0816 10.8544C26.3149 10.8544 27.4011 13.3037 28.0401 14.5283L24.2064 20.1191L18.1364 33.5371C20.5324 31.9397 33.6309 31.9397 38.2633 32.0994C41.9692 32.2272 47.7942 29.9163 50.2435 28.7449L64.7796 29.5436L72.6068 34.3357C73.1392 37.0513 74.2041 43.7283 74.2041 48.7121C74.2041 53.6959 71.5418 55.4743 70.2107 55.7405L58.7096 47.4342L58.0707 40.246H25.0051L19.4143 39.4473C18.7318 39.4918 17.832 39.5537 16.8585 39.6253C12.5136 45.0071 17.3909 44.6243 20.3727 43.7602L36.5061 42.4823L40.1801 45.0381C32.8322 50.6289 10.3092 49.6705 9.03134 46.6355C8.00902 44.2075 9.45731 41.3642 10.3092 40.246C8.55213 40.5655 7.1145 39.2876 5.99632 38.1694C4.87814 37.0513 3.2808 39.6071 3.91975 40.7252C4.5587 41.8434 4.07947 44.2395 2.32236 44.2395C0.565252 44.2395 -0.0736971 41.6837 0.565252 38.8084C1.2042 35.9331 4.07947 35.7734 5.99632 35.7734C7.52979 35.7734 10.1495 35.3474 11.2676 35.1344C12.29 33.7287 19.0415 22.7282 22.2895 17.4036V10.8544L24.2064 7.65962Z" fill="#EAC7AC"/>
<path d="M55.9941 3.82593L61.1057 3.18698L66.377 5.4233L73.4054 15.0075L71.9678 21.0776L65.2588 26.5086L58.0707 25.5502L52.7993 19.1607V10.3752L55.9941 3.82593Z" fill="#EAC7AC"/>
<path d="M40.6593 72.8324C41.8094 71.1712 45.1852 63.1949 46.7293 59.4145C54.5564 60.1599 70.2107 61.9383 70.2107 63.0884C70.2107 64.2386 69.2523 70.9156 68.7731 74.1103C58.9226 74.3765 39.5092 74.4937 40.6593 72.8324Z" fill="#EAC7AC"/>
</g>
<path id="Vector 87" d="M64.62 6.3819C64.3644 4.59284 61.7447 4.46505 60.4668 4.62479C55.5387 3.63916 54.9545 8.48691 55.4323 12.0568C56.6218 11.6925 58.7518 11.2565 59.3486 11.9727C60.1473 12.9311 58.5499 12.9311 58.0707 12.6117C57.6874 12.3561 56.2082 12.5052 55.5166 12.6117C55.564 12.8902 55.6172 13.1577 55.6747 13.4103C56.4734 16.9246 55.6747 19.0011 55.3552 20.5985C55.0996 21.8764 56.3136 24.1127 56.9526 25.0712C56.8248 27.7547 51.8942 29.1711 49.4449 29.5438L46.4099 26.5088C47.2618 25.3374 48.9977 21.1736 49.1254 13.8896C49.2852 4.78462 54.237 2.06905 56.4734 0.791148C58.2624 -0.23117 60.733 0.79115 61.7447 1.4301C64.9394 0.471676 67.016 0.950888 70.8497 3.50668C74.6834 6.06248 74.3639 13.7299 74.2042 15.487C74.0445 17.2441 74.5237 17.883 76.121 22.1959C77.3989 25.6463 75.5886 28.5322 74.5237 29.5438C74.5237 30.694 73.2458 31.6204 72.6068 31.9399C72.2234 30.5342 68.2939 28.5854 66.3771 27.7867C65.8659 26.2533 66.59 23.4206 67.016 22.1959C68.1661 21.557 68.9861 20.0129 69.2523 19.3207C69.3588 19.4272 69.8913 19.5762 71.1692 19.3207C72.4471 19.0651 72.2341 16.0194 71.9679 14.5286C71.2224 14.3688 69.5079 14.0174 68.6134 13.8896C68.2766 13.8415 67.8095 13.3442 67.3123 12.6117C66.5213 12.5052 64.7158 12.3561 63.8213 12.6117C62.9267 12.8672 62.8096 12.2922 62.8628 11.9727C63.6414 11.6532 65.5401 11.206 66.906 11.9727C65.868 10.2419 64.8173 7.76332 64.62 6.3819Z" fill="#A08263"/>
<g id="Vector 88">
<path d="M71.808 4.4652C68.8688 0.503718 63.8744 0.897736 61.7446 1.58993L61.2653 2.70808C62.703 2.70808 65.738 4.78466 65.8977 6.38203C66.0255 7.65993 70.6366 12.665 72.9262 15.0078C73.4373 19.0971 71.2223 24.1661 70.0509 26.1895C74.843 22.9947 75.482 9.41706 71.808 4.4652Z" fill="#61472D"/>
<path d="M60.9459 2.70808L61.4251 1.43018C54.2369 -2.40351 51.3616 6.38203 50.7227 8.45862C50.0837 10.5352 50.5629 17.2442 50.7227 21.2376C50.8504 24.4323 48.8591 26.9349 47.8474 27.7868C50.0837 28.1063 52.959 18.6818 52.4798 15.0078C52.0006 11.3339 54.8759 3.82624 56.1538 3.98598C57.1761 4.11377 59.7745 3.18729 60.9459 2.70808Z" fill="#61472D"/>
</g>
<g id="Vector 85">
<path d="M26.2831 9.09735C25.5164 8.4584 24.5793 8.83112 24.2066 9.09735C21.8105 9.41681 22.9287 15.6466 22.7689 17.8829C22.6418 19.663 17.0218 26.9676 14.1857 30.4499C14.1683 30.4737 14.1541 30.4912 14.1431 30.5021C14.1572 30.4848 14.1714 30.4674 14.1857 30.4499C14.9261 29.4363 21.3349 17.044 21.491 15.3271C21.6508 13.57 19.4144 8.29872 20.3729 8.29872C21.1396 8.29872 22.6092 5.10397 23.2481 3.5066C23.5676 3.45336 24.6219 3.37881 26.2831 3.5066C28.3597 3.66634 29.6376 7.65977 29.6376 8.29872C29.6376 8.93767 27.2416 9.89603 26.2831 9.09735Z" fill="#F5D5BC"/>
<path d="M0.884941 38.489C1.25766 36.9449 2.38647 33.8886 3.91995 34.0164C5.79795 34.1729 10.4358 35.556 12.2755 35.612C12.3129 35.6125 12.3497 35.6131 12.386 35.6137C12.3504 35.6137 12.3135 35.6132 12.2755 35.612C9.35168 35.5734 3.15612 36.0917 0.884941 38.489Z" fill="#F5D5BC"/>
<path d="M53.9177 27.1477C52.0009 27.9144 45.7711 30.4489 42.8958 31.6203C50.2437 29.2242 53.9177 30.5021 56.3138 30.1827C58.7098 29.8632 59.0293 32.419 63.8214 32.8982L64.0532 32.9214C68.6243 33.378 68.9592 33.4114 70.5304 35.454C72.1277 37.5306 68.4538 40.0864 68.933 42.8019C69.3164 44.9743 72.2875 47.7538 73.7251 48.8719C74.79 47.4875 76.5045 43.0894 74.8433 36.5722C72.7667 28.4256 67.1759 28.4256 64.4604 27.1477C61.7448 25.8698 56.3138 26.1892 53.9177 27.1477Z" fill="#F5D5BC"/>
<path d="M49.7645 45.8369C48.4866 45.198 49.2321 42.3759 49.7645 41.0448C52.4801 40.7253 51.5216 41.8435 51.6814 43.4409C51.8411 45.0382 51.3619 46.6356 49.7645 45.8369Z" fill="#F5D5BC"/>
<path d="M40.6595 72.6728C41.0429 70.5004 43.375 63.6742 44.4932 60.5327C45.3451 60.1068 47.0809 59.5104 47.2087 60.5327C47.3685 61.8106 45.6114 64.5262 44.4932 66.2833C43.5987 67.689 41.5647 71.1287 40.6595 72.6728Z" fill="#F5D5BC"/>
<path d="M52.3203 74.2701C51.0424 70.9476 51.3619 63.7275 51.6814 60.5327C57.2189 61.2249 68.1663 63.1205 67.6551 65.1651C67.0162 67.7209 53.9177 78.4233 52.3203 74.2701Z" fill="#F5D5BC"/>
</g>
<g id="Vector 86">
<path d="M25.1648 16.6051C25.9316 14.3049 27.4011 14.5818 28.0401 15.0077C28.1998 16.126 24.3661 21.2374 23.0882 25.3906C22.0659 28.7131 21.1714 31.5671 20.8519 32.5788L17.7686 33.6579C17.7247 33.704 17.6859 33.7113 17.6572 33.6969L17.7686 33.6579C17.8873 33.5334 18.0431 33.1259 18.1364 32.0996C18.2961 30.3425 24.2064 19.4804 25.1648 16.6051Z" fill="#D6B49B"/>
<path d="M3.76002 40.4059C4.14339 40.5337 7.54047 40.3527 9.19109 40.2462C8.92486 40.1929 8.26462 40.0545 7.75346 39.9267C7.11451 39.767 5.67687 38.1696 4.0795 38.3293C2.48212 38.4891 3.28081 40.2462 3.76002 40.4059Z" fill="#D6B49B"/>
<path d="M45.132 45.0383C42.8318 44.5271 35.3348 46.8486 31.8738 48.0733C39.3814 42.4825 31.8738 43.4409 30.4361 43.4409C28.9985 43.4409 16.3793 45.6772 14.9416 44.2396C13.504 42.802 15.9001 40.8851 17.0182 39.6072C18.1364 38.3293 23.0882 39.9267 25.1648 40.2462C27.2414 40.5656 31.8738 38.0098 36.1867 36.4125C40.4996 34.8151 44.1736 35.7735 47.8475 38.0098C51.5215 40.2462 57.1123 38.8085 61.1057 37.6904C65.0991 36.5722 64.9394 39.2877 63.342 40.8851C62.0641 42.163 56.5266 41.737 53.9175 41.3643L51.6812 45.0383C51.9368 41.2046 50.2968 40.9916 49.4449 41.3643C48.9657 42.802 47.4322 45.5494 45.132 45.0383Z" fill="#D6B49B"/>
<path d="M66.6965 23.7932C66.4409 24.1766 66.2705 26.5088 66.2173 27.6269C62.8948 26.0934 58.1239 26.2425 56.1538 26.5088C57.0484 25.6142 56.5266 23.5802 56.1538 22.6751C56.7928 23.74 58.6777 25.8698 61.1057 25.8698C63.5337 25.8698 65.8446 24.4854 66.6965 23.7932Z" fill="#D6B49B"/>
<path d="M46.5696 65.4846C45.5473 67.1459 44.1203 70.8625 43.5346 72.5131C44.9722 72.7793 47.8475 73.0881 47.8475 72.1936C47.8475 71.2991 49.7644 63.834 50.7228 60.2133C50.2968 59.7341 49.4449 59.0632 49.4449 60.2133C49.4449 61.651 47.8475 63.4081 46.5696 65.4846Z" fill="#D6B49B"/>
</g>
<g id="Vector 91">
<path d="M45.4514 44.3994C42.5123 47.8498 41.884 52.0136 41.9372 53.6642C43.9818 54.3032 47.6877 45.7306 49.2851 41.3644L45.4514 44.3994Z" fill="#2C9A4A"/>
<path d="M43.6943 61.3316C44.2055 60.6926 44.2268 59.1485 44.1735 58.4563L50.2436 53.6642C51.2552 54.7291 53.63 57.0506 55.0357 57.8174C56.7928 58.7758 61.2654 54.9421 63.981 53.6642C66.6965 52.3863 67.9744 54.7824 68.2939 56.5395C68.5494 57.9452 70.7432 59.468 71.8081 60.0537C71.3821 61.0654 70.4982 63.3443 70.3704 64.3666C70.2107 65.6445 61.2654 65.6445 54.5565 63.0887C49.1893 61.0441 45.0787 61.0654 43.6943 61.3316Z" fill="#2C9A4A"/>
<path d="M59.1888 115.802C58.1665 112.991 54.1837 107.602 52.3201 105.259C60.9459 105.259 68.2939 128.581 69.5718 133.213C70.5941 136.919 79.9014 150.838 84.4273 157.334C82.191 154.565 76.5363 147.43 71.8081 141.04C65.8978 133.054 60.4667 119.316 59.1888 115.802Z" fill="#2C9A4A"/>
</g>
<g id="Vector 90">
<path d="M48.0072 44.08C48.3906 43.9522 49.1254 42.3229 49.4449 41.5242C48.6781 44.4634 49.5514 45.8371 50.0838 46.1566C49.7643 48.2332 51.202 49.0319 52.1604 52.3863C52.9271 55.0699 59.6148 54.8889 62.8628 54.4629C62.0109 55.3149 59.5403 57.2424 56.4733 58.1369C52.6396 59.255 50.0838 53.5045 50.0838 54.4629C50.0838 55.4213 47.6878 57.6577 47.6878 58.4564C47.6878 59.0953 45.3449 59.0421 44.1735 58.9356C42.2567 56.3798 41.884 54.037 41.9372 53.185C44.493 52.2266 47.528 44.2397 48.0072 44.08Z" fill="#34A853"/>
<path d="M68.4536 72.673C66.6646 71.9062 49.3916 71.9275 40.9788 72.034C32.5127 82.7364 31.2348 108.454 33.3114 114.364C35.388 120.275 39.062 138.644 39.062 147.27C39.062 154.171 40.9788 165.054 41.9372 169.633H51.0422C49.9241 165.108 47.4961 155.225 46.7293 151.903C45.9626 148.58 47.0488 140.189 47.6878 136.408C48.4865 132.947 50.2755 123.406 51.0422 112.927C52.0007 99.8283 53.4383 106.058 56.4733 108.454C59.5083 110.85 67.6549 132.574 74.3639 143.437C79.7311 152.126 90.3376 164.522 94.97 169.633C97.1531 167.663 101.136 163.595 99.6024 163.084C97.6855 162.445 81.8715 138.485 81.0728 132.574C80.2742 126.664 72.9263 118.518 69.7315 111.968C66.5368 105.419 68.4536 94.3972 67.6549 88.0077C66.8562 81.6183 62.0641 79.7014 61.9044 75.708C61.7766 72.5132 66.2173 72.3535 68.4536 72.673Z" fill="#34A853"/>
</g>
<g id="Vector 89">
<path d="M58.7097 41.8437L53.9176 41.3644C53.6514 41.6307 52.9592 42.5784 52.3203 44.2397C51.6813 45.901 50.4567 46.2098 49.9242 46.1566C47.3684 56.5395 61.9045 55.1018 63.9811 53.9837C66.0577 52.8655 67.3356 54.6226 67.4953 56.22C67.6231 57.4979 70.3173 59.5212 71.6485 60.3732C72.2874 59.2231 73.0861 54.5694 73.4056 52.3863C70.5303 54.7824 64.62 49.9903 62.5434 48.3929C60.8822 47.115 59.2955 43.4943 58.7097 41.8437Z" fill="#47BC67"/>
<path d="M61.1058 76.9858C60.7224 71.8743 66.2706 71.8743 69.0927 72.5132C69.9446 77.5715 71.9999 88.8064 73.4056 93.279C75.1627 98.8699 79.7951 107.496 79.9548 115.163C80.0826 121.297 85.2261 135.077 87.7819 141.2C92.8935 145.954 99.3895 159.474 101.999 165.64C95.7155 159.464 83.0537 145.928 82.6703 141.2C82.1911 135.29 78.9964 128.262 73.4056 121.872C67.8148 115.483 67.4953 105.579 67.4953 93.279C67.4953 80.9793 61.585 83.3753 61.1058 76.9858Z" fill="#47BC67"/>
<path d="M46.7295 129.539C46.7295 125.45 49.8177 116.547 51.3618 112.607C54.3968 124.747 51.3618 151.743 51.3618 154.299C51.3618 156.343 52.0008 167.291 52.3203 172.509C48.4866 168.515 45.6113 151.583 45.6113 150.146C45.6113 148.708 46.7295 134.651 46.7295 129.539Z" fill="#47BC67"/>
</g>
</g>
</svg>
