<svg width="30" height="31" viewBox="0 0 30 31" fill="none" xmlns="http://www.w3.org/2000/svg">
<g id="back">
<path id="&#244;&#128;&#134;&#137;" d="M0 15.1543C0 15.6113 0.158203 15.9893 0.544922 16.3584L7.1543 22.8271C7.43555 23.1084 7.76953 23.2402 8.16504 23.2402C8.98242 23.2402 9.6416 22.5811 9.6416 21.7812C9.6416 21.3682 9.47461 20.999 9.16699 20.7002L3.43652 15.1455L9.16699 9.6084C9.47461 9.30078 9.6416 8.93164 9.6416 8.52734C9.6416 7.72754 8.98242 7.06836 8.16504 7.06836C7.76953 7.06836 7.43555 7.20898 7.1543 7.48145L0.544922 13.9502C0.166992 14.3193 0 14.6885 0 15.1543Z" fill="#374234"/>
</g>
</svg>
