<svg width="11" height="17" viewBox="0 0 11 17" fill="none" xmlns="http://www.w3.org/2000/svg">
<path d="M0 8.6543C0 9.11133 0.174023 9.48926 0.599414 9.8584L7.86973 16.3271C8.1791 16.6084 8.54648 16.7402 8.98154 16.7402C9.88066 16.7402 10.6058 16.0811 10.6058 15.2812C10.6058 14.8682 10.4221 14.499 10.0837 14.2002L3.78018 8.64551L10.0837 3.1084C10.4221 2.80078 10.6058 2.43164 10.6058 2.02734C10.6058 1.22754 9.88066 0.568359 8.98154 0.568359C8.54648 0.568359 8.1791 0.708984 7.86973 0.981445L0.599414 7.4502C0.183691 7.81934 0 8.18848 0 8.6543Z" fill="white"/>
</svg>
