<svg width="77" height="159" viewBox="0 0 77 159" fill="none" xmlns="http://www.w3.org/2000/svg">
<g id="Group 45">
<g id="Vector 123">
<path d="M37.1947 20.0609L51.5098 6.84692L62.1544 10.1504L67.4767 21.8962L63.072 38.4136L51.5098 47.957L53.0644 53.0958C59.3367 51.5052 72.4686 50.0859 74.8177 57.1334C77.7541 65.9427 74.8177 76.2202 74.8177 80.2578C74.8177 84.2954 72.6154 91.82 72.7989 97.1423C72.9824 102.465 75.0012 110.54 72.7989 121.368C70.5966 132.196 70.7801 138.803 72.7989 141.556C74.8177 144.309 81.2412 151.283 81.9753 159.909C79.3447 161.438 73.8267 163.579 72.7989 159.909C71.5142 155.32 70.0461 152.384 67.4767 148.713C64.9072 145.043 65.4578 137.151 65.8249 129.26C66.1919 121.368 62.8884 96.4082 64.3567 89.9848C65.5312 84.846 60.6862 74.3849 58.1168 69.7968L51.5098 86.8648C50.8369 95.1235 49.5277 113.586 49.6745 121.368L27.1007 114.944C28.5077 107.297 30.7712 90.7556 28.5689 85.7636C26.3666 80.7717 22.6349 71.9379 21.0443 68.145C19.4537 65.5145 16.346 63.2999 16.6396 75.4861C17.0067 90.7189 14.4372 112.926 13.5196 118.248C12.602 123.57 6.72911 142.657 6.72911 148.713C6.72911 153.559 7.34086 158.196 7.64674 159.909L5.62794 164.497L2.50798 155.32C3.91502 147.49 6.72911 130.948 6.72911 127.424C6.72911 123.02 5.62794 113.476 5.62794 108.705C5.62794 103.933 6.72911 96.9588 6.72911 92.7377C6.72911 88.5165 9.29849 70.3473 9.29849 65.9427C9.29849 61.538 12.235 53.4628 16.6396 53.0958C21.0443 52.7287 22.6959 52.7287 25.6324 51.8111C27.9816 51.077 34.3194 30.3384 37.1947 20.0609Z" fill="#EAC7AC"/>
<path d="M10.3997 144.125C9.51872 140.455 12.1126 131.462 13.5196 127.424C20.4285 125.589 32.6064 139.721 34.6252 144.125C36.2403 147.649 39.7028 160.031 41.2322 165.782L16.6396 166.883C14.9267 160.826 11.2806 147.796 10.3997 144.125Z" fill="#EAC7AC"/>
<path d="M50.5921 164.497C48.6143 161.12 48.1774 149.509 48.2063 144.125C52.2439 141.434 60.4292 136.527 60.8696 138.436C61.3101 140.345 67.6601 156.605 70.7801 164.497C64.8749 165.904 52.5699 167.874 50.5921 164.497Z" fill="#EAC7AC"/>
</g>
<g id="Vector 124">
<path d="M23.7971 109.438C25.8526 104.006 24.6535 94.695 23.7971 90.7186C23.6215 89.8377 27.7615 88.8833 29.8535 88.5163C31.3217 104.667 29.2417 112.375 28.0182 114.21L23.7971 109.438Z" fill="#D6B49B"/>
<path d="M49.4909 121.001C47.1417 110.723 49.8579 93.4715 51.5097 86.1304L63.0719 89.2504C61.31 96.0042 62.8272 110.784 63.806 117.33L49.4909 121.001Z" fill="#D6B49B"/>
<path d="M48.2062 45.0203C44.5356 44.7267 41.0486 39.2698 39.7639 36.5781L38.1122 40.2486C38.8463 43.9192 44.4133 47.7732 47.105 49.2415V45.3874C51.3628 46.4151 53.7732 44.5921 54.4461 43.5521C53.8955 44.1639 51.8767 45.314 48.2062 45.0203Z" fill="#D6B49B"/>
<path d="M40.131 165.231C40.131 162.001 36.0934 149.57 34.0746 143.758C39.2133 145.043 49.4909 147.942 49.4909 149.264C49.4909 150.585 50.592 160.459 51.1426 165.231C50.1148 162.735 44.3521 155.137 41.5992 151.65C42.1865 155.761 40.8651 162.417 40.131 165.231Z" fill="#D6B49B"/>
<path d="M63.0719 97.5091C63.0719 93.9854 64.173 89.3116 64.7236 87.4151C63.4389 94.5727 65.4577 113.476 66.0083 117.33C66.5589 121.184 66.7424 139.72 66.7424 143.758C66.7424 146.988 68.4553 149.631 69.3118 150.549C67.66 149.447 66.0083 150.365 66.7424 152.751C67.4765 155.137 66.5589 157.155 66.0083 159.358C65.4577 161.56 64.7236 159.174 63.806 154.036C62.8883 148.897 63.0719 144.492 63.806 141.005C64.5401 137.518 65.0907 120.817 64.7236 118.615C64.3566 116.412 63.0719 101.914 63.0719 97.5091Z" fill="#D6B49B"/>
<path d="M17.0065 66.493C18.3279 64.2907 20.1265 66.0648 20.8606 67.2271C17.19 67.9612 19.576 86.1304 19.7595 89.2504C19.943 92.3704 17.5572 111.824 15.9054 117.33C14.2537 122.836 10.2161 135.683 8.56432 141.005C7.24293 145.263 6.91255 153.913 6.91253 157.706C6.42312 152.139 6.17842 139.574 9.11486 133.848C12.7854 126.69 13.8866 106.318 14.9877 96.2244C16.0889 86.1304 15.3548 69.2459 17.0065 66.493Z" fill="#D6B49B"/>
</g>
<g id="Vector 125">
<path d="M6.72885 98.611C6.60504 98.9433 6.46803 99.3227 6.32205 99.7404C5.02337 105.207 6.80165 122.708 7.64656 127.608C8.56426 132.931 3.24183 152.201 3.24183 154.403C3.24183 156.165 4.58775 160.276 5.2607 162.111H3.24183C-0.245183 157.707 0.305399 155.504 1.95714 151.1C3.60889 146.695 3.24183 138.803 3.24183 134.582V113.11C3.24183 109.437 5.09763 103.243 6.32205 99.7404C6.43395 99.2693 6.5687 98.8876 6.72885 98.611Z" fill="#F5D5BC"/>
<path d="M33.5239 84.6629C35.2858 83.1947 38.0509 76.343 39.2132 73.1007C38.4791 77.799 43.0673 81.91 45.4532 83.3782C43.9238 85.1523 40.5346 90.2788 39.2132 96.5922C37.8918 102.906 39.7638 115.495 40.865 121.001L32.6063 117.881C33.4627 112.743 35.2858 100.923 35.7262 94.7569C36.1667 88.5904 34.4415 85.4582 33.5239 84.6629Z" fill="#F5D5BC"/>
<path d="M75.9187 80.0747C76.6528 76.4042 76.2246 66.7996 75.9187 62.4561C74.2058 71.6325 71.0736 91.7471 72.2481 98.7945C73.7164 107.604 72.7987 115.312 71.6976 122.837C70.5964 130.361 70.2293 137.335 71.6976 141.006C73.1658 144.676 77.0199 148.347 77.754 152.201C78.3412 155.284 80.568 158.624 81.608 159.909C81.5469 157.095 80.3233 150.109 75.9187 144.676C70.4129 137.886 71.147 130.545 73.8999 122.286C76.6528 114.027 74.0834 102.465 73.8999 97.8769C73.7164 93.2887 75.0011 84.6629 75.9187 80.0747Z" fill="#F5D5BC"/>
<path d="M13.703 167.984C7.24279 154.623 8.93125 142.963 10.583 138.803C10.583 144.676 15.9665 159.848 18.6582 166.7L13.703 167.984Z" fill="#F5D5BC"/>
</g>
<g id="Vector 126">
<path d="M19.2089 69.4299C19.2089 67.0808 23.8583 57.4395 26.183 52.9125C26.183 55.6654 25.0818 58.6018 23.2466 62.4559C21.4113 66.3099 22.696 70.164 25.0818 74.9357C26.9905 78.7531 30.8935 82.7662 32.6064 84.2956C29.3029 86.4368 22.2555 89.9483 20.4936 86.865C18.2913 83.0109 19.2089 72.3663 19.2089 69.4299Z" fill="#34A853"/>
<path d="M50.9592 80.4415C54.7765 75.8901 55.8532 63.0065 55.9144 57.1336C56.832 58.4183 64.3567 78.9733 63.9896 84.2956C63.696 88.5534 54.5685 87.7826 50.0415 86.865C48.7568 86.6203 47.1418 84.993 50.9592 80.4415Z" fill="#34A853"/>
<path d="M35.3594 114.394C30.9547 113.366 26.183 109.439 24.3477 107.604C22.5859 110.1 20.1877 115.495 19.2089 117.881C21.9618 124.488 63.9896 129.443 63.9896 123.57C63.9896 118.872 63.1331 114.761 62.7049 113.293C62.1543 115.128 53.8956 116.046 50.9592 116.046C48.0227 116.046 40.8652 115.679 35.3594 114.394Z" fill="#34A853"/>
</g>
<g id="Vector 127">
<path d="M29.1189 85.0298C32.2021 84.2957 37.0106 80.8086 39.0294 79.1569C40.7423 80.931 44.5719 84.5893 46.1869 85.0298C47.655 85.4302 48.9311 83.7377 49.5187 82.5993C49.5622 82.4945 49.6138 82.3871 49.6739 82.2769C49.6294 82.377 49.5775 82.4854 49.5187 82.5993C47.9687 86.3339 56.7582 86.6715 60.6856 86.3145C63.9156 86.0208 63.9891 82.3992 63.622 80.6251C64.9434 84.1488 64.7843 88.2109 64.5396 89.8015C59.7679 92.0038 50.408 89.4344 48.0222 88.3333C45.6363 87.2321 44.7187 85.9474 44.1681 85.3968C43.6175 84.8462 40.314 81.1757 39.0294 80.9922C37.7447 80.8086 35.5423 85.0298 34.2576 86.3145C32.973 87.5991 32.0553 90.1685 27.6507 92.0038C23.246 93.8391 20.3096 89.985 20.3096 88.7003V86.3145C20.8602 86.865 25.2648 85.9474 29.1189 85.0298Z" fill="#2C9A4A"/>
<path d="M14.6202 128.342C14.3266 125.112 17.5567 120.022 19.2084 117.881C19.2084 118.982 27.4672 121.735 41.4153 124.305C52.5737 126.36 61.1139 124.549 63.9891 123.387L63.6221 140.639C60.3798 142.474 53.7483 146.291 53.161 146.878C52.4269 147.613 48.3893 150.365 47.2882 151.65C46.4072 152.678 45.0858 152.445 44.5353 152.201C42.7 152.751 41.4153 152.751 40.8647 152.201C40.3141 151.65 32.7895 144.86 31.6883 144.493C30.5872 144.126 14.9873 132.38 14.6202 128.342Z" fill="#2C9A4A"/>
</g>
<g id="Vector 128">
<path d="M57.3819 10.1507C56.3542 9.12293 53.7726 9.47775 52.6102 9.78363C49.1232 8.49902 46.0032 14.5552 46.0032 15.4728C46.0032 16.3905 39.9468 20.9787 38.6622 21.8963C37.3775 22.8139 35.9092 25.3833 37.3774 27.7692C38.8456 30.155 40.6809 34.3762 41.2315 36.5785C41.7821 38.7808 37.7445 43.9196 37.3774 46.3055C37.1679 47.6672 39.0633 49.608 40.8776 51.0751C41.9091 51.5323 42.7047 52.0099 42.8832 52.5453C42.3222 52.1772 41.6064 51.6643 40.8776 51.0751C38.7273 50.1218 35.5522 49.257 34.808 48.1407C33.7068 46.4889 34.808 45.0208 34.808 42.0843C34.808 39.1479 30.954 47.9572 29.3022 50.5265C27.9808 52.5821 26.5493 54.6865 25.9987 55.4818L21.5941 53.0959C16.2718 53.6465 12.7847 54.7477 11.133 58.0512C9.48133 61.3547 9.11423 68.8793 8.38013 72.3663C7.79284 75.1559 3.85312 76.7098 1.95667 77.138C4.89311 73.8346 3.05784 63.1899 4.70958 62.0888C6.36133 60.9876 7.46244 57.5006 7.27892 54.7477C7.09539 51.9947 7.09539 48.5077 10.2154 46.3055C13.3353 44.1032 12.4177 42.0843 12.7847 36.5785C13.0784 32.1738 19.5141 28.1362 22.6952 26.668C23.0623 25.8728 23.9065 22.9975 24.3469 17.8587C24.8975 11.4353 32.9727 7.58117 34.808 7.58117C36.6433 7.58117 39.5797 4.27768 40.6809 2.62594C41.782 0.974195 44.7185 0.974173 50.9584 0.240064C55.9503 -0.347223 60.6242 4.15535 62.3372 6.48005C66.1913 5.92947 69.8617 13.2706 69.8617 17.8587C69.8617 22.4469 74.8169 31.8068 73.8993 33.275C72.9817 34.7432 69.1276 42.0843 71.8805 46.3055C74.0828 49.6824 74.144 52.9736 73.8993 54.1971C73.1652 54.0136 70.7793 55.4818 70.7793 56.0324C70.7793 56.583 68.3935 59.3359 67.4758 59.7029C66.5582 60.07 66.1912 61.9053 68.3935 64.4747C70.5958 67.044 68.9441 74.0181 69.1276 77.138C69.2744 79.634 72.8593 80.8698 74.6334 81.1756C73.3487 81.7262 70.5958 82.497 69.8617 81.1756C68.9441 79.5239 67.4758 79.5239 66.1912 79.8909C64.9065 80.258 64.9065 84.1121 66.9253 84.2956C68.5403 84.4424 70.9017 84.8462 71.8805 85.0297V87.0485C70.9629 86.6814 68.6871 86.0575 66.9253 86.4979C65.3335 86.8959 65.6192 89.321 66.0501 90.8232C66.1251 90.9505 66.174 91.0984 66.1912 91.2696C66.1439 91.1338 66.0962 90.9837 66.0501 90.8232C65.4821 89.8593 63.418 90.0818 62.3372 90.352C62.643 89.3732 63.2548 87.1219 63.2548 85.9473C63.2548 84.4791 53.8948 71.2652 50.5914 68.8793C47.288 66.4935 48.7561 59.5194 49.3066 57.5006C49.8572 55.4818 47.8384 55.4818 47.6549 56.3995C47.4714 57.3171 44.7185 60.07 42.8832 61.3547C41.0478 62.6394 35.1751 64.4747 38.6622 70.3475C41.4518 75.0458 45.0856 72.9169 46.5537 71.2652C45.2691 74.9357 40.3139 74.5687 38.6622 72.3663C37.0104 70.164 36.4598 68.5123 36.8269 64.4747C37.1939 60.4371 42.8833 56.7665 44.7185 55.4818C46.5538 54.1971 45.2691 51.9948 46.0032 51.2607C46.5905 50.6734 46.8597 46.856 46.9209 45.0208C47.0432 45.1431 47.9486 45.4245 50.5914 45.5714C53.8949 45.7549 55.3631 43.1855 56.0972 42.0843C56.8313 40.9832 61.6031 35.6609 62.3372 34.3762C63.0713 33.0915 62.5207 28.5033 63.2548 26.668C63.4932 26.072 63.7316 25.4179 63.9449 24.6492C63.9969 24.4657 61.6031 24.0986 60.6854 24.2822C59.9512 24.429 59.8901 23.3645 59.9513 22.8139C60.9892 22.4469 63.3226 21.933 64.3528 22.8139C64.5782 21.5002 64.723 19.8967 64.723 17.8587C64.723 13.2706 62.3372 11.9859 61.6031 11.0682C60.8689 10.1506 58.6666 11.4354 57.3819 10.1507Z" fill="#A08263"/>
<path d="M52.0596 18.7763C50.4446 18.0422 47.3491 19.0822 46.0032 19.694C50.4079 18.9599 52.0596 20.6116 52.2431 20.7951C52.4267 20.9787 55.3631 23.181 55.9137 22.4469C56.4643 21.7128 54.0784 19.694 52.0596 18.7763Z" fill="#A08263"/>
</g>
<g id="Vector 129">
<path d="M50.4083 2.07568C53.932 0.75428 59.4623 4.58388 61.787 6.66386C60.9061 6.66386 59.9517 7.76508 59.5847 8.31569C58.4223 7.031 55.0332 4.46162 50.7754 4.46162C45.4531 4.46162 42.5166 9.41685 40.1308 10.8851C37.7449 12.3533 36.6438 15.8403 34.4414 18.4097C32.2391 20.9791 39.2131 36.5789 39.2131 39.1483C39.2131 41.7177 37.3779 45.0211 37.3779 47.2235C37.3779 49.4258 42.5166 49.9764 45.6366 52.3622C48.7566 54.7481 46.1872 57.868 40.8649 60.0704C36.6071 61.8322 36.2767 66.9221 36.6438 69.2467C34.0744 58.0516 45.8201 57.868 45.6366 54.5646C45.4531 51.2611 38.6626 50.7105 37.3779 49.2423C36.0932 47.774 36.4602 42.2682 36.6438 40.8C36.8273 39.3318 36.0932 33.826 34.4414 30.5225C33.12 27.8797 32.6673 22.3249 32.6062 19.8779C31.1379 21.1626 30.2203 25.3837 29.6697 26.4849C29.1191 27.5861 19.5757 34.9271 19.5757 38.0471C19.5757 41.1671 14.437 48.3246 11.8676 50.7105C9.81208 52.6192 8.19704 55.6657 7.64646 56.9504C7.82999 55.1151 8.74762 51.8116 10.2158 49.9764C11.6841 48.1411 16.2722 43.1859 17.3734 37.313C18.4746 31.4401 27.2839 27.7696 27.2839 24.099C27.2839 20.4285 30.7709 12.3533 33.1567 11.8027C35.5426 11.2521 41.0484 5.74631 42.5166 3.72751C43.6912 2.11247 48.2672 1.95335 50.4083 2.07568Z" fill="#61472D"/>
<path d="M63.6223 6.66386C61.7136 6.51696 60.1353 8.19328 59.5847 9.0498C69.1281 10.7015 68.2104 29.4213 68.0269 38.0471C67.8434 46.6729 60.6858 46.1223 59.0341 58.0516C57.3823 69.9808 62.8882 74.202 66.3752 78.6066C69.1648 82.1303 72.5539 81.7878 73.8998 81.176C70.0457 80.9925 57.5659 65.3927 62.8882 59.3363C68.2104 53.2799 70.5963 49.9764 70.5963 48.5082C70.5963 47.0399 68.9446 46.1223 69.8622 41.3506C70.7798 36.5789 73.5327 34.9271 73.8998 31.8072C74.2668 28.6872 69.6787 22.4473 69.8622 17.4921C70.0457 12.5368 66.0081 6.84747 63.6223 6.66386Z" fill="#61472D"/>
</g>
</g>
</svg>
