<svg width="149" height="33" viewBox="0 0 149 33" fill="none" xmlns="http://www.w3.org/2000/svg">
<g clip-path="url(#clip0_162_80)">
<rect width="33.5" height="33.5" rx="6.54297" fill="url(#paint0_linear_162_80)"/>
<ellipse cx="16.7336" cy="29.2961" rx="7.96606" ry="1.81567" fill="#272727" fill-opacity="0.05"/>
<g clip-path="url(#clip1_162_80)">
<path d="M26.2034 19.6622C26.2034 24.8835 21.9707 29.1162 16.7494 29.1162C11.5281 29.1162 7.29541 24.8835 7.29541 19.6622C7.29541 14.4409 11.5281 10.2082 16.7494 10.2082C21.9707 10.2082 26.2034 14.4409 26.2034 19.6622Z" fill="#58853E"/>
<path d="M21.9223 7.60904H11.6274L8.00892 16.0692H25.4899L21.9223 7.60904Z" fill="#58853E"/>
<path d="M22.5339 10.1828C22.5339 13.3493 19.9555 15.9163 16.7749 15.9163C13.5943 15.9163 11.0158 13.3493 11.0158 10.1828C11.0158 7.01622 13.5943 4.44922 16.7749 4.44922C19.9555 4.44922 22.5339 7.01622 22.5339 10.1828Z" fill="#58853E"/>
<path d="M25.337 19.5032C25.337 24.3901 21.4808 28.3517 16.7239 28.3517C11.967 28.3517 8.11084 24.3901 8.11084 19.5032C8.11084 14.6163 11.967 10.6548 16.7239 10.6548C21.4808 10.6548 25.337 14.6163 25.337 19.5032Z" fill="#9CCC65"/>
<path d="M21.4367 8.22202H12.0575L8.76088 16.1403H24.6869L21.4367 8.22202Z" fill="#9CCC65"/>
<path d="M21.9939 10.6309C21.9939 13.5946 19.6448 15.9972 16.7471 15.9972C13.8494 15.9972 11.5003 13.5946 11.5003 10.6309C11.5003 7.66717 13.8494 5.26459 16.7471 5.26459C19.6448 5.26459 21.9939 7.66717 21.9939 10.6309Z" fill="#9CCC65"/>
<path d="M23.808 19.0825C23.808 23.1603 20.6364 26.466 16.7239 26.466C12.8115 26.466 9.63979 23.1603 9.63979 19.0825C9.63979 15.0047 12.8115 11.699 16.7239 11.699C20.6364 11.699 23.808 15.0047 23.808 19.0825Z" fill="#E7F278"/>
<path d="M20.6001 9.66909H12.8859L10.1744 16.2764H23.2734L20.6001 9.66909Z" fill="#E7F278"/>
<path d="M21.0584 11.6791C21.0584 14.1522 19.1263 16.157 16.743 16.157C14.3597 16.157 12.4276 14.1522 12.4276 11.6791C12.4276 9.2061 14.3597 7.20129 16.743 7.20129C19.1263 7.20129 21.0584 9.2061 21.0584 11.6791Z" fill="#E7F278"/>
<g filter="url(#filter0_i_162_80)">
<circle cx="16.6984" cy="20.4147" r="4.2046" fill="#784F41"/>
</g>
<circle cx="13.8862" cy="12.36" r="0.919406" fill="black"/>
<circle cx="14.2" cy="12.0014" r="0.291519" fill="white"/>
<circle cx="13.7964" cy="12.3601" r="0.156972" fill="white"/>
<circle cx="19.2232" cy="12.36" r="0.919406" fill="black"/>
<circle cx="19.5371" cy="12.0013" r="0.291519" fill="white"/>
<circle cx="19.1335" cy="12.3601" r="0.156972" fill="white"/>
<path d="M15.3662 13.5485C15.5755 13.8924 15.9268 14.3558 16.5547 14.3558C17.1826 14.3558 17.5189 13.8924 17.7207 13.5485" stroke="black" stroke-width="0.281326" stroke-linecap="round"/>
<ellipse cx="13.3704" cy="13.7279" rx="0.672736" ry="0.403642" fill="#D0DC5A"/>
<ellipse cx="19.8736" cy="13.7279" rx="0.672736" ry="0.403642" fill="#D0DC5A"/>
<ellipse cx="18.3271" cy="18.163" rx="1.40153" ry="0.73899" transform="rotate(35.4067 18.3271 18.163)" fill="#9B6B5E"/>
</g>
</g>
<path d="M44.2912 23.5V10.4091H52.6776V12.397H46.6626V15.951H52.1023V17.9389H46.6626V23.5H44.2912ZM57.8478 23.6918C56.889 23.6918 56.058 23.4808 55.3549 23.0589C54.6517 22.6371 54.1063 22.0469 53.7185 21.2884C53.335 20.5298 53.1432 19.6435 53.1432 18.6293C53.1432 17.6151 53.335 16.7266 53.7185 15.9638C54.1063 15.201 54.6517 14.6087 55.3549 14.1868C56.058 13.7649 56.889 13.554 57.8478 13.554C58.8066 13.554 59.6375 13.7649 60.3407 14.1868C61.0438 14.6087 61.5871 15.201 61.9706 15.9638C62.3584 16.7266 62.5523 17.6151 62.5523 18.6293C62.5523 19.6435 62.3584 20.5298 61.9706 21.2884C61.5871 22.0469 61.0438 22.6371 60.3407 23.0589C59.6375 23.4808 58.8066 23.6918 57.8478 23.6918ZM57.8605 21.8381C58.3804 21.8381 58.8151 21.6953 59.1645 21.4098C59.514 21.12 59.7739 20.7322 59.9444 20.2464C60.1191 19.7607 60.2064 19.2195 60.2064 18.6229C60.2064 18.022 60.1191 17.4787 59.9444 16.9929C59.7739 16.5028 59.514 16.1129 59.1645 15.8232C58.8151 15.5334 58.3804 15.3885 57.8605 15.3885C57.3279 15.3885 56.8847 15.5334 56.531 15.8232C56.1816 16.1129 55.9195 16.5028 55.7448 16.9929C55.5743 17.4787 55.4891 18.022 55.4891 18.6229C55.4891 19.2195 55.5743 19.7607 55.7448 20.2464C55.9195 20.7322 56.1816 21.12 56.531 21.4098C56.8847 21.6953 57.3279 21.8381 57.8605 21.8381ZM68.3489 23.6918C67.3901 23.6918 66.5592 23.4808 65.856 23.0589C65.1529 22.6371 64.6075 22.0469 64.2197 21.2884C63.8362 20.5298 63.6444 19.6435 63.6444 18.6293C63.6444 17.6151 63.8362 16.7266 64.2197 15.9638C64.6075 15.201 65.1529 14.6087 65.856 14.1868C66.5592 13.7649 67.3901 13.554 68.3489 13.554C69.3077 13.554 70.1387 13.7649 70.8418 14.1868C71.545 14.6087 72.0883 15.201 72.4718 15.9638C72.8596 16.7266 73.0535 17.6151 73.0535 18.6293C73.0535 19.6435 72.8596 20.5298 72.4718 21.2884C72.0883 22.0469 71.545 22.6371 70.8418 23.0589C70.1387 23.4808 69.3077 23.6918 68.3489 23.6918ZM68.3617 21.8381C68.8816 21.8381 69.3163 21.6953 69.6657 21.4098C70.0151 21.12 70.2751 20.7322 70.4455 20.2464C70.6202 19.7607 70.7076 19.2195 70.7076 18.6229C70.7076 18.022 70.6202 17.4787 70.4455 16.9929C70.2751 16.5028 70.0151 16.1129 69.6657 15.8232C69.3163 15.5334 68.8816 15.3885 68.3617 15.3885C67.829 15.3885 67.3859 15.5334 67.0322 15.8232C66.6827 16.1129 66.4207 16.5028 66.246 16.9929C66.0755 17.4787 65.9903 18.022 65.9903 18.6229C65.9903 19.2195 66.0755 19.7607 66.246 20.2464C66.4207 20.7322 66.6827 21.12 67.0322 21.4098C67.3859 21.6953 67.829 21.8381 68.3617 21.8381ZM78.2109 23.6726C77.4396 23.6726 76.7493 23.4744 76.1399 23.0781C75.5305 22.6818 75.049 22.1065 74.6953 21.3523C74.3416 20.598 74.1647 19.6818 74.1647 18.6037C74.1647 17.5128 74.3437 16.5923 74.7017 15.8423C75.0639 15.0881 75.5518 14.5192 76.1654 14.1357C76.7791 13.7479 77.463 13.554 78.2173 13.554C78.7926 13.554 79.2656 13.652 79.6363 13.848C80.0071 14.0398 80.3011 14.272 80.5184 14.5447C80.7358 14.8132 80.9041 15.0668 81.0234 15.3054H81.1193V10.4091H83.4396V23.5H81.164V21.9531H81.0234C80.9041 22.1918 80.7315 22.4453 80.5056 22.7138C80.2798 22.978 79.9815 23.2038 79.6108 23.3913C79.24 23.5788 78.7734 23.6726 78.2109 23.6726ZM78.8565 21.7741C79.3466 21.7741 79.7642 21.642 80.1093 21.3778C80.4545 21.1094 80.7166 20.7365 80.8956 20.2592C81.0745 19.782 81.164 19.2259 81.164 18.5909C81.164 17.956 81.0745 17.4041 80.8956 16.9354C80.7208 16.4666 80.4609 16.1023 80.1157 15.8423C79.7748 15.5824 79.3551 15.4524 78.8565 15.4524C78.3409 15.4524 77.9105 15.5866 77.5653 15.8551C77.2201 16.1236 76.9602 16.4943 76.7855 16.9673C76.6108 17.4403 76.5234 17.9815 76.5234 18.5909C76.5234 19.2045 76.6108 19.7521 76.7855 20.2337C76.9645 20.7109 77.2265 21.0881 77.5717 21.3651C77.9211 21.6378 78.3494 21.7741 78.8565 21.7741ZM89.5724 10.4091H92.4744L96.3608 19.8949H96.5142L100.401 10.4091H103.303V23.5H101.027V14.5064H100.906L97.2876 23.4616H95.5874L91.9695 14.4872H91.848V23.5H89.5724V10.4091ZM109.679 23.6918C108.695 23.6918 107.845 23.4872 107.129 23.0781C106.417 22.6648 105.87 22.081 105.486 21.3267C105.103 20.5682 104.911 19.6754 104.911 18.6484C104.911 17.6385 105.103 16.7521 105.486 15.9893C105.874 15.2223 106.415 14.6257 107.11 14.1996C107.804 13.7692 108.62 13.554 109.558 13.554C110.163 13.554 110.734 13.652 111.271 13.848C111.812 14.0398 112.289 14.3381 112.703 14.7429C113.12 15.1477 113.448 15.6634 113.687 16.2898C113.926 16.9119 114.045 17.6534 114.045 18.5142V19.2237H105.997V17.6641H111.827C111.823 17.2209 111.727 16.8267 111.539 16.4815C111.352 16.1321 111.09 15.8572 110.753 15.657C110.421 15.4567 110.033 15.3565 109.59 15.3565C109.117 15.3565 108.701 15.4716 108.343 15.7017C107.985 15.9276 107.706 16.2259 107.506 16.5966C107.31 16.9631 107.21 17.3658 107.206 17.8047V19.1662C107.206 19.7372 107.31 20.2273 107.519 20.6364C107.728 21.0412 108.019 21.3523 108.394 21.5696C108.769 21.7827 109.208 21.8892 109.711 21.8892C110.048 21.8892 110.353 21.8423 110.625 21.7486C110.898 21.6506 111.135 21.5078 111.335 21.3203C111.535 21.1328 111.686 20.9006 111.789 20.6236L113.949 20.8665C113.813 21.4375 113.553 21.9361 113.169 22.3622C112.79 22.7841 112.304 23.1122 111.712 23.3466C111.12 23.5767 110.442 23.6918 109.679 23.6918ZM117.867 17.7472V23.5H115.553V13.6818H117.764V15.3501H117.879C118.105 14.8004 118.465 14.3636 118.96 14.0398C119.458 13.7159 120.074 13.554 120.807 13.554C121.484 13.554 122.075 13.6989 122.577 13.9886C123.085 14.2784 123.477 14.6982 123.754 15.2479C124.035 15.7976 124.173 16.4645 124.169 17.2486V23.5H121.855V17.6065C121.855 16.9503 121.685 16.4368 121.344 16.0661C121.007 15.6953 120.541 15.5099 119.944 15.5099C119.539 15.5099 119.179 15.5994 118.864 15.7784C118.553 15.9531 118.308 16.2067 118.129 16.5391C117.954 16.8714 117.867 17.2741 117.867 17.7472ZM130.974 13.6818V15.4716H125.33V13.6818H130.974ZM126.723 11.3295H129.037V20.5469C129.037 20.858 129.084 21.0966 129.178 21.2628C129.276 21.4247 129.404 21.5355 129.561 21.5952C129.719 21.6548 129.894 21.6847 130.086 21.6847C130.23 21.6847 130.363 21.674 130.482 21.6527C130.605 21.6314 130.699 21.6122 130.763 21.5952L131.153 23.4041C131.029 23.4467 130.853 23.4936 130.622 23.5447C130.397 23.5959 130.12 23.6257 129.792 23.6342C129.212 23.6513 128.69 23.5639 128.225 23.3722C127.761 23.1761 127.392 22.8736 127.12 22.4645C126.851 22.0554 126.719 21.544 126.723 20.9304V11.3295ZM136.636 23.6918C135.678 23.6918 134.847 23.4808 134.144 23.0589C133.44 22.6371 132.895 22.0469 132.507 21.2884C132.124 20.5298 131.932 19.6435 131.932 18.6293C131.932 17.6151 132.124 16.7266 132.507 15.9638C132.895 15.201 133.44 14.6087 134.144 14.1868C134.847 13.7649 135.678 13.554 136.636 13.554C137.595 13.554 138.426 13.7649 139.129 14.1868C139.832 14.6087 140.376 15.201 140.759 15.9638C141.147 16.7266 141.341 17.6151 141.341 18.6293C141.341 19.6435 141.147 20.5298 140.759 21.2884C140.376 22.0469 139.832 22.6371 139.129 23.0589C138.426 23.4808 137.595 23.6918 136.636 23.6918ZM136.649 21.8381C137.169 21.8381 137.604 21.6953 137.953 21.4098C138.303 21.12 138.563 20.7322 138.733 20.2464C138.908 19.7607 138.995 19.2195 138.995 18.6229C138.995 18.022 138.908 17.4787 138.733 16.9929C138.563 16.5028 138.303 16.1129 137.953 15.8232C137.604 15.5334 137.169 15.3885 136.649 15.3885C136.117 15.3885 135.673 15.5334 135.32 15.8232C134.97 16.1129 134.708 16.5028 134.533 16.9929C134.363 17.4787 134.278 18.022 134.278 18.6229C134.278 19.2195 134.363 19.7607 134.533 20.2464C134.708 20.7322 134.97 21.12 135.32 21.4098C135.673 21.6953 136.117 21.8381 136.649 21.8381ZM142.855 23.5V13.6818H145.099V15.3182H145.201C145.38 14.7514 145.687 14.3146 146.121 14.0078C146.56 13.6967 147.061 13.5412 147.623 13.5412C147.751 13.5412 147.894 13.5476 148.052 13.5604C148.214 13.5689 148.348 13.5838 148.454 13.6051V15.7337C148.356 15.6996 148.201 15.6697 147.988 15.6442C147.779 15.6143 147.577 15.5994 147.381 15.5994C146.959 15.5994 146.579 15.6911 146.243 15.8743C145.91 16.0533 145.648 16.3026 145.456 16.6222C145.265 16.9418 145.169 17.3104 145.169 17.728V23.5H142.855Z" fill="#374234"/>
<defs>
<filter id="filter0_i_162_80" x="12.4938" y="16.2101" width="8.4092" height="8.40921" filterUnits="userSpaceOnUse" color-interpolation-filters="sRGB">
<feFlood flood-opacity="0" result="BackgroundImageFix"/>
<feBlend mode="normal" in="SourceGraphic" in2="BackgroundImageFix" result="shape"/>
<feColorMatrix in="SourceAlpha" type="matrix" values="0 0 0 0 0 0 0 0 0 0 0 0 0 0 0 0 0 0 127 0" result="hardAlpha"/>
<feOffset dx="0.917367" dy="-1.12123"/>
<feComposite in2="hardAlpha" operator="arithmetic" k2="-1" k3="1"/>
<feColorMatrix type="matrix" values="0 0 0 0 0.2125 0 0 0 0 0.0540909 0 0 0 0 0 0 0 0 0.3 0"/>
<feBlend mode="normal" in2="shape" result="effect1_innerShadow_162_80"/>
</filter>
<linearGradient id="paint0_linear_162_80" x1="16.75" y1="0" x2="16.75" y2="33.5" gradientUnits="userSpaceOnUse">
<stop offset="1" stop-color="#F4F4F4"/>
</linearGradient>
<clipPath id="clip0_162_80">
<rect width="33" height="33" rx="8.23305" fill="white"/>
</clipPath>
<clipPath id="clip1_162_80">
<rect width="18.908" height="24.667" fill="white" transform="translate(7.29541 4.44922)"/>
</clipPath>
</defs>
</svg>
