<svg width="49" height="165" viewBox="0 0 49 165" fill="none" xmlns="http://www.w3.org/2000/svg">
<g id="Group 42">
<path id="Vector 100" d="M9.41326 20.4509C8.47637 19.0455 9.02289 13.6974 9.41326 11.1991L21.4757 3.46968L32.7185 14.4782C33.1869 17.7964 34.1707 26.0957 34.358 32.7476C34.5923 41.0626 41.5019 46.801 43.4928 51.1342C45.0855 54.6007 45.4837 65.1486 45.4837 69.9892H40.3307C39.511 75.1031 37.6606 86.4785 36.8174 91.0693C35.7634 96.8078 37.2858 97.042 36.8174 100.672C36.4426 103.577 30.2591 116.951 27.2142 123.275C33.7725 126.945 46.9827 135.548 47.3575 140.608C47.7322 145.667 43.6099 151.616 41.5019 153.958L45.4837 166.606L0.0442963 165.67C2.0352 159.385 7.071 144.753 11.287 136.509C15.503 128.264 22.2565 106.762 25.1062 97.042C24.6378 93.5755 24.1303 80.4512 23.9351 74.3223L11.287 75.2592C11.4041 72.4485 13.6058 64.5552 21.4757 55.4673C29.3457 46.3794 25.6918 40.1991 22.8811 38.245C21.2345 39.0248 19.7501 39.578 18.8993 39.8914C16.6742 40.7112 14.449 37.1979 13.8635 35.7925C13.2779 34.3872 10.4672 28.8829 9.9988 27.2434C9.53035 25.6038 9.88169 23.73 9.9988 23.3787C10.1159 23.0273 10.5844 22.2076 9.41326 20.4509Z" fill="#EAC7AC"/>
<path id="Vector 104" d="M31.4306 16.9379C28.1515 15.4155 21.8274 21.9737 17.3772 13.5413C15.9718 12.0188 11.7558 12.253 11.6387 14.4782C11.545 16.2583 8.35959 20.1 7.65692 20.6855C6.72002 20.4981 7.22751 16.8204 6.72002 16.1177C6.72001 3.82141 13.0441 1.47876 17.3772 0.658975C21.7103 -0.160808 25.6922 0.0741252 34.1242 4.99253C41.7078 9.41607 44.3129 32.0454 41.9707 40.2427C40.6394 44.9018 42.0903 47.7045 43.2298 49.1759C43.4884 49.4747 43.7271 49.7507 43.9422 50.0003C44.1423 50.2131 44.2808 50.3543 44.3129 50.4315C44.1989 50.2984 44.075 50.1544 43.9422 50.0003C43.7489 49.7947 43.498 49.5222 43.2298 49.1759C39.7121 45.1121 32.5073 36.8498 30.7279 33.9191C29.1352 31.2958 31.0402 21.8566 31.4306 16.9379Z" fill="#A08263"/>
<path id="Vector 105" d="M33.4206 3.93887C29.2983 0.659743 22.4902 2.57257 19.6014 3.93887C30.6099 0.308441 36.1142 14.1276 36.3484 19.7489C36.5358 24.246 38.9249 31.9286 40.096 35.2077C39.1591 28.6494 40.7987 23.7307 41.0329 19.0463C41.2671 14.3618 38.5736 8.03779 33.4206 3.93887Z" fill="#61472D"/>
<g id="Vector 103">
<path d="M5.78255 77.8356C6.1573 73.7133 14.2146 64.3288 18.1964 60.1518C14.2614 68.3964 20.1483 72.7998 23.5836 73.971C23.7397 73.2293 24.0286 72.2611 23.9349 74.3223C23.8412 76.3835 24.5205 90.6399 24.8718 97.5104C23.4664 100.227 19.2114 112.696 17.2595 118.591L12.3408 133.815C8.78063 126.976 9.21783 98.8767 9.88146 85.6821C8.359 84.7843 5.40779 81.958 5.78255 77.8356Z" fill="#34A853"/>
<path d="M40.6819 69.872C42.2262 69.5246 45.2978 68.5815 45.3652 67.5638C45.3656 67.5525 45.366 67.5411 45.3664 67.5298C45.3664 67.5412 45.366 67.5525 45.3652 67.5638C45.1273 74.686 43.603 90.8006 39.3937 98.5644C34.1236 108.285 36.2316 112.267 38.8081 115.429C41.3846 118.591 53.4471 134.049 46.4204 147.517C47.1621 144.863 47.4978 138.546 42.907 134.518C38.3162 130.489 30.6103 125.5 27.3311 123.509C30.1418 117.498 35.9037 104.865 36.4659 102.429C37.1574 99.4324 36.7944 97.3171 36.4809 95.4904L36.4659 95.4024C35.7632 91.3035 37.2856 82.0517 40.6819 69.872Z" fill="#34A853"/>
</g>
<g id="Vector 106">
<path d="M13.8633 86.506C6.74293 85.7565 5.58742 80.4942 5.89972 77.9568C5.89972 87.9816 19.9531 85.9204 22.7638 77.9568C22.7638 81.1188 20.9837 87.2555 13.8633 86.506Z" fill="#2C9A4A"/>
<path d="M27.5654 123.279L30.6103 116.721C36.9843 119.48 49.0775 129.259 46.687 146.358C46.6778 146.437 46.667 146.512 46.6546 146.584C46.6657 146.509 46.6765 146.433 46.687 146.358C47.0265 143.456 45.1335 136.159 34.8263 128.315L27.5654 123.279Z" fill="#2C9A4A"/>
</g>
<g id="Vector 101">
<path d="M18.8992 39.8911C18.3136 40.0863 16.8849 40.1253 15.8543 38.7199C14.5661 36.9633 13.7463 35.9093 13.2778 34.2697C13.7853 35.1676 15.0579 37.1741 16.0885 38.0173C17.3767 39.0713 20.3045 38.7199 21.2414 38.0173C21.972 37.4694 26.4052 35.5686 28.7668 33.925C29.303 33.4451 29.7693 33.0028 30.1419 32.6301C29.9356 33.017 29.4338 33.4608 28.7668 33.925C27.6659 34.9103 26.2701 36.0543 24.7839 37.0804C27.702 40.2034 31.3599 47.9952 22.6468 54.1787C24.5206 51.9536 27.6357 46.2151 25.1061 41.0622C24.818 40.4766 23.9418 39.1181 22.7416 38.3686C21.4148 39.1198 20.0892 39.6879 18.8992 39.8911Z" fill="#D6B49B"/>
<path d="M40.4478 71.0428C41.0099 62.4234 35.3729 58.2386 32.4842 57.2236C41.1504 65.6557 37.8713 64.2503 38.9253 71.0428C39.9793 77.8353 34.5922 91.3032 34.5922 98.6812C34.5922 106.059 30.1419 112.383 25.9259 120.113C22.5531 126.296 19.8361 135.884 18.8992 139.905C24.1302 128.779 34.8498 105.708 35.8804 102.429C37.1686 98.3299 36.5831 100.204 36.466 92.8256C36.3488 85.4476 39.7451 81.8171 40.4478 71.0428Z" fill="#D6B49B"/>
<path d="M25.7901 170.733L46.9016 145.502C44.842 152.711 30.4244 167.644 27.8498 170.588L25.7901 170.733Z" fill="#D6B49B"/>
<path d="M31.6644 19.2794C31.7581 14.3138 29.2831 15.6489 28.0339 16.9371C32.2678 16.9371 31.2034 22.9489 30.1419 25.9547C30.6104 25.7986 31.5707 24.2449 31.6644 19.2794Z" fill="#D6B49B"/>
</g>
<path id="Vector 102" d="M24.0513 80.767C23.6766 72.8971 24.8321 69.7585 25.4567 69.1729C23.9342 73.0376 24.8711 80.767 26.0422 89.6675C27.2134 98.568 26.0422 101.964 23.2316 106.18C20.983 109.553 14.3311 128.588 11.2861 137.683C12.5041 131.968 20.8503 108.366 24.8711 97.2797C24.754 95.0546 24.4261 88.6369 24.0513 80.767Z" fill="#F5D5BC"/>
</g>
</svg>
